<?xml version="1.0" standalone="no"?>
<!DOCTYPE svg PUBLIC "-//W3C//DTD SVG 20010904//EN"
 "http://www.w3.org/TR/2001/REC-SVG-20010904/DTD/svg10.dtd">
<svg version="1.0" xmlns="http://www.w3.org/2000/svg"
 width="1200pt" height="630pt" viewBox="0 0 1200 630"
 preserveAspectRatio="xMidYMid meet">
<style>
    .logo-letters{
      fill: #183861;
    }
  </style>
  <rect x="0" y="0" width="1200" height="630" fill="white" rx="80" ry="80"/>

<g transform="translate(24,490) scale(0.05,-0.05)"
fill="#000000" stroke="none">
<path fill="#0DAA70" d="M2215 6993 c-562 -34 -1095 -273 -1490 -668 -560 -560 -791 -1375
-608 -2150 77 -327 229 -637 449 -915 36 -47 765 -783 1618 -1636 1528 -1528
1552 -1551 1602 -1563 88 -21 124 -5 226 100 314 322 528 764 599 1233 28 181
30 464 6 643 -45 329 -170 665 -348 938 -94 145 -159 226 -296 366 l-113 117
0 556 c0 527 -1 559 -19 594 -23 46 -46 67 -94 87 -91 38 -196 0 -245 -90 -15
-26 -18 -81 -22 -400 l-5 -370 -442 435 c-244 239 -457 442 -475 452 -49 25
-134 23 -180 -5 -57 -35 -98 -102 -98 -161 0 -80 2 -82 473 -548 l452 -447
-363 -1 c-401 0 -404 0 -459 -63 -90 -103 -45 -266 83 -305 31 -9 185 -12 586
-12 l544 0 105 -107 c296 -303 476 -664 534 -1074 20 -140 19 -402 -1 -542
-33 -227 -117 -473 -225 -663 -54 -93 -149 -233 -172 -252 -10 -9 -322 299
-1498 1476 -1624 1626 -1553 1550 -1683 1802 -75 146 -125 276 -159 415 -46
182 -52 240 -52 470 0 229 6 288 51 466 173 697 740 1249 1435 1397 167 36
279 45 482 39 270 -8 462 -50 705 -155 179 -77 409 -228 507 -332 22 -24 53
-55 70 -69 16 -14 381 -377 810 -806 830 -828 869 -871 990 -1084 101 -179
183 -408 221 -616 24 -137 30 -424 10 -572 -53 -399 -225 -766 -497 -1057 -38
-41 -76 -90 -84 -110 -68 -162 108 -322 265 -241 15 8 56 46 93 85 217 229
369 478 494 808 l28 73 75 25 c105 34 337 150 450 224 346 227 628 543 808
905 163 329 235 641 236 1020 0 222 -15 353 -63 551 -193 787 -792 1412 -1582
1649 -197 59 -404 88 -639 88 -189 1 -301 -10 -470 -44 -337 -68 -679 -227
-954 -443 -51 -39 -62 -44 -76 -34 -10 7 -52 39 -94 71 -416 315 -975 483
-1501 450z m3360 -399 c745 -97 1382 -662 1575 -1395 104 -395 79 -824 -70
-1199 -160 -405 -470 -756 -856 -970 -103 -56 -119 -60 -108 -28 11 36 8 376
-5 483 -14 114 -52 299 -82 395 -81 268 -234 559 -407 775 -31 39 -385 400
-786 803 l-731 733 30 25 c58 48 193 135 286 183 241 126 487 192 799 215 71
5 235 -4 355 -20z"/>
</g>
  <g transform="translate(454,130) scale(1.5,1.5)">
    <path class="logo-letters" d="M14,75.92l23.14-58.91h11.7l22.89,58.91h-10.94l-6.06-16.49h-24.15l-5.97,16.49h-10.6ZM33.52,51.52h18.35l-9.17-24.91-9.17,24.91Z"/>
    <path class="logo-letters" d="M87.63,75.92v-58.91h10.1v50.24h31.39v8.67h-41.49Z"/>
    <path class="logo-letters" d="M148.73,75.92v-58.91h42.33v8.58h-32.23v16.83h22.22v8.33h-22.22v25.16h-10.1Z"/>
    <path class="logo-letters" d="M234.14,76.85c-4.1,0-7.97-.77-11.61-2.31-3.65-1.54-6.83-3.7-9.55-6.48-2.72-2.78-4.84-6-6.35-9.68-1.52-3.67-2.27-7.64-2.27-11.91s.76-8.23,2.27-11.91c1.51-3.67,3.63-6.9,6.35-9.68,2.72-2.78,5.9-4.94,9.55-6.48,3.65-1.54,7.52-2.31,11.61-2.31s8.13.77,11.78,2.31c3.65,1.54,6.83,3.7,9.55,6.48,2.72,2.78,4.84,6,6.35,9.68,1.51,3.67,2.27,7.65,2.27,11.91s-.76,8.23-2.27,11.91c-1.51,3.68-3.63,6.9-6.35,9.68-2.72,2.78-5.91,4.94-9.55,6.48-3.65,1.54-7.57,2.31-11.78,2.31ZM234.23,67.76c2.75,0,5.3-.53,7.66-1.6,2.36-1.07,4.42-2.57,6.19-4.5,1.77-1.94,3.16-4.21,4.17-6.82s1.52-5.4,1.52-8.37-.51-5.83-1.52-8.42-2.4-4.84-4.17-6.78c-1.77-1.94-3.83-3.44-6.19-4.5-2.36-1.06-4.94-1.6-7.74-1.6s-5.29.54-7.62,1.6c-2.33,1.07-4.38,2.57-6.14,4.5-1.77,1.94-3.14,4.2-4.12,6.78-.98,2.58-1.47,5.36-1.47,8.33s.49,5.85,1.47,8.46c.98,2.61,2.36,4.88,4.12,6.82,1.77,1.94,3.81,3.44,6.14,4.5,2.33,1.07,4.89,1.6,7.7,1.6Z"/>
    <path class="logo-letters" d="M283.88,75.92v-58.91h9.85l30.8,42.92-.25-42.92h9.51v58.91h-9l-31.64-44.01.25,44.01h-9.51Z"/>
    <path class="logo-letters" d="M376.03,76.85c-4.6,0-8.94-.79-13-2.36-4.07-1.57-7.98-3.96-11.74-7.15l5.47-7.49c3.81,3.14,7.22,5.36,10.22,6.65,3,1.29,6.19,1.94,9.55,1.94,2.64,0,4.94-.39,6.9-1.18,1.96-.79,3.51-1.89,4.63-3.32,1.12-1.43,1.68-3.04,1.68-4.84,0-2.36-.8-4.18-2.4-5.47-1.6-1.29-4.36-2.27-8.29-2.95l-10.86-1.94c-5.11-.84-8.89-2.54-11.36-5.09-2.47-2.55-3.7-5.82-3.7-9.8,0-3.59.88-6.7,2.65-9.34,1.77-2.64,4.26-4.7,7.49-6.18,3.23-1.49,7.05-2.23,11.49-2.23s8.65.65,12.67,1.94c4.01,1.29,7.67,3.17,10.98,5.64l-5.13,7.57c-2.97-2.3-6.03-4.01-9.17-5.13-3.14-1.12-6.37-1.68-9.68-1.68-2.36,0-4.42.38-6.19,1.14-1.77.76-3.14,1.75-4.12,2.99-.98,1.23-1.47,2.69-1.47,4.38,0,2.08.71,3.7,2.15,4.88s3.75,2.02,6.94,2.52l10.52,1.85c5.95.96,10.35,2.76,13.21,5.43,2.86,2.67,4.29,6.24,4.29,10.73,0,3.59-1.01,6.79-3.03,9.59-2.02,2.81-4.8,4.99-8.33,6.56-3.53,1.57-7.66,2.36-12.37,2.36Z"/>
    <path class="logo-letters" d="M445.37,76.85c-4.1,0-7.97-.77-11.61-2.31-3.65-1.54-6.83-3.7-9.55-6.48-2.72-2.78-4.84-6-6.35-9.68-1.52-3.67-2.27-7.64-2.27-11.91s.76-8.23,2.27-11.91c1.51-3.67,3.63-6.9,6.35-9.68,2.72-2.78,5.9-4.94,9.55-6.48,3.65-1.54,7.52-2.31,11.61-2.31s8.13.77,11.78,2.31c3.65,1.54,6.83,3.7,9.55,6.48,2.72,2.78,4.84,6,6.35,9.68,1.51,3.67,2.27,7.65,2.27,11.91s-.76,8.23-2.27,11.91c-1.51,3.68-3.63,6.9-6.35,9.68-2.72,2.78-5.91,4.94-9.55,6.48-3.65,1.54-7.57,2.31-11.78,2.31ZM445.46,67.76c2.75,0,5.3-.53,7.66-1.6,2.36-1.07,4.42-2.57,6.19-4.5,1.77-1.94,3.16-4.21,4.17-6.82s1.52-5.4,1.52-8.37-.51-5.83-1.52-8.42-2.4-4.84-4.17-6.78c-1.77-1.94-3.83-3.44-6.19-4.5-2.36-1.06-4.94-1.6-7.74-1.6s-5.29.54-7.62,1.6c-2.33,1.07-4.38,2.57-6.14,4.5-1.77,1.94-3.14,4.2-4.12,6.78-.98,2.58-1.47,5.36-1.47,8.33s.49,5.85,1.47,8.46c.98,2.61,2.36,4.88,4.12,6.82,1.77,1.94,3.81,3.44,6.14,4.5,2.33,1.07,4.89,1.6,7.7,1.6Z"/>
    <path class="logo-letters" d="M20.56,143.53v-58.91h10.1v50.24h31.39v8.67h-41.49Z"/>
    <path class="logo-letters" d="M81.24,143.53v-58.91h10.01v58.91h-10.01Z"/>
    <path class="logo-letters" d="M113.47,143.53v-58.91h26.26c3.65,0,6.87.65,9.68,1.94,2.8,1.29,4.99,3.1,6.56,5.43,1.57,2.33,2.36,5.04,2.36,8.12s-.87,5.68-2.61,7.95c-1.74,2.27-4.1,4-7.07,5.17,3.59,1.01,6.42,2.74,8.5,5.18,2.08,2.44,3.11,5.34,3.11,8.71s-.81,6.13-2.44,8.63c-1.63,2.5-3.89,4.42-6.77,5.76-2.89,1.35-6.3,2.02-10.23,2.02h-27.35ZM123.57,109.45h15.06c2.92,0,5.23-.76,6.94-2.27,1.71-1.51,2.57-3.53,2.57-6.06s-.86-4.53-2.57-6.02c-1.71-1.49-4.03-2.23-6.94-2.23h-15.06v16.58ZM123.57,135.28h15.99c3.2,0,5.75-.83,7.66-2.48,1.91-1.65,2.86-3.86,2.86-6.61s-.94-4.94-2.82-6.56c-1.88-1.63-4.42-2.44-7.62-2.44h-16.07v18.09Z"/>
    <path class="logo-letters" d="M175.45,143.53v-58.91h26.17c3.87,0,7.29.74,10.27,2.23s5.29,3.58,6.94,6.27c1.65,2.69,2.48,5.81,2.48,9.34,0,3.82-1.05,7.14-3.16,9.97-2.1,2.83-4.95,4.9-8.54,6.19l12.46,24.91h-11.19l-11.45-23.56h-13.88v23.56h-10.1ZM185.55,111.89h15.15c3.14,0,5.67-.85,7.57-2.57,1.91-1.71,2.86-3.97,2.86-6.77s-.96-5.22-2.86-6.9c-1.91-1.68-4.43-2.52-7.57-2.52h-15.15v18.77Z"/>
    <path class="logo-letters" d="M240.42,143.53v-58.91h42.16v8.58h-32.06v16.41h22.38v8.33h-22.38v17h32.4v8.58h-42.5Z"/>
    <path class="logo-letters" d="M302.78,143.53v-58.91h26.17c3.87,0,7.29.74,10.27,2.23s5.29,3.58,6.94,6.27c1.65,2.69,2.48,5.81,2.48,9.34,0,3.82-1.05,7.14-3.16,9.97-2.1,2.83-4.95,4.9-8.54,6.19l12.46,24.91h-11.19l-11.45-23.56h-13.88v23.56h-10.1ZM312.88,111.89h15.15c3.14,0,5.67-.85,7.57-2.57,1.91-1.71,2.86-3.97,2.86-6.77s-.96-5.22-2.86-6.9c-1.91-1.68-4.43-2.52-7.57-2.52h-15.15v18.77Z"/>
    <path class="logo-letters" d="M389.76,144.46c-4.1,0-7.97-.77-11.61-2.31-3.65-1.54-6.83-3.7-9.55-6.48-2.72-2.78-4.84-6-6.35-9.68-1.52-3.67-2.27-7.64-2.27-11.91s.76-8.23,2.27-11.91c1.51-3.67,3.63-6.9,6.35-9.68,2.72-2.78,5.9-4.94,9.55-6.48,3.65-1.54,7.52-2.31,11.61-2.31s8.13.77,11.78,2.31c3.65,1.54,6.83,3.7,9.55,6.48,2.72,2.78,4.84,6,6.35,9.68,1.51,3.67,2.27,7.65,2.27,11.91s-.76,8.23-2.27,11.91c-1.51,3.68-3.63,6.9-6.35,9.68-2.72,2.78-5.91,4.94-9.55,6.48-3.65,1.54-7.57,2.31-11.78,2.31ZM389.84,135.37c2.75,0,5.3-.53,7.66-1.6,2.36-1.07,4.42-2.57,6.19-4.5,1.77-1.94,3.16-4.21,4.17-6.82s1.52-5.4,1.52-8.37-.51-5.83-1.52-8.42-2.4-4.84-4.17-6.78c-1.77-1.94-3.83-3.44-6.19-4.5-2.36-1.06-4.94-1.6-7.74-1.6s-5.29.54-7.62,1.6c-2.33,1.07-4.38,2.57-6.14,4.5-1.77,1.94-3.14,4.2-4.12,6.78-.98,2.58-1.47,5.36-1.47,8.33s.49,5.85,1.47,8.46c.98,2.61,2.36,4.88,4.12,6.82,1.77,1.94,3.81,3.44,6.14,4.5,2.33,1.07,4.89,1.6,7.7,1.6Z"/>
    <path class="logo-letters" d="M453.19,144.46c-4.6,0-8.94-.79-13-2.36-4.07-1.57-7.98-3.96-11.74-7.15l5.47-7.49c3.81,3.14,7.22,5.36,10.22,6.65,3,1.29,6.19,1.94,9.55,1.94,2.64,0,4.94-.39,6.9-1.18,1.96-.79,3.51-1.89,4.63-3.32,1.12-1.43,1.68-3.04,1.68-4.84,0-2.36-.8-4.18-2.4-5.47-1.6-1.29-4.36-2.27-8.29-2.95l-10.86-1.94c-5.11-.84-8.89-2.54-11.36-5.09-2.47-2.55-3.7-5.82-3.7-9.8,0-3.59.88-6.7,2.65-9.34,1.77-2.64,4.26-4.7,7.49-6.18,3.23-1.49,7.05-2.23,11.49-2.23s8.65.65,12.67,1.94c4.01,1.29,7.67,3.17,10.98,5.64l-5.13,7.57c-2.97-2.3-6.03-4.01-9.17-5.13-3.14-1.12-6.37-1.68-9.68-1.68-2.36,0-4.42.38-6.19,1.14-1.77.76-3.14,1.75-4.12,2.99-.98,1.23-1.47,2.69-1.47,4.38,0,2.08.71,3.7,2.15,4.88s3.75,2.02,6.94,2.52l10.52,1.85c5.95.96,10.35,2.76,13.21,5.43,2.86,2.67,4.29,6.24,4.29,10.73,0,3.59-1.01,6.79-3.03,9.59-2.02,2.81-4.8,4.99-8.33,6.56-3.53,1.57-7.66,2.36-12.37,2.36Z"/>
    <path class="logo-letters" d="M18.95,227.3v-41.52h3.44l25.8,36.6v-36.6h2.91v41.52h-2.85l-26.4-37.43v37.43h-2.91Z"/>
    <path class="logo-letters" d="M82.31,227.95c-3.2,0-6.02-.7-8.45-2.11-2.43-1.4-4.33-3.46-5.69-6.17-1.36-2.71-2.05-5.98-2.05-9.82v-24.08h3.08v24.08c0,3.24.56,6,1.69,8.28,1.13,2.27,2.68,4,4.66,5.19,1.98,1.19,4.23,1.78,6.76,1.78s4.83-.59,6.79-1.78c1.96-1.19,3.5-2.92,4.63-5.19,1.13-2.27,1.69-5.03,1.69-8.28v-24.08h3.08v24.08c0,3.84-.68,7.11-2.05,9.82-1.36,2.71-3.26,4.77-5.69,6.17-2.43,1.4-5.25,2.11-8.45,2.11Z"/>
    <path class="logo-letters" d="M123.44,227.3v-38.74h-14.59v-2.79h32.27v2.79h-14.59v38.74h-3.08Z"/>
    <path class="logo-letters" d="M154.28,227.3v-41.52h16.19c2.77,0,5.1.51,7,1.54s3.35,2.42,4.36,4.18c1.01,1.76,1.51,3.75,1.51,5.96,0,2.69-.76,5.04-2.28,7.06-1.52,2.02-3.69,3.36-6.5,4.03l8.72,18.74h-3.38l-8.54-18.27h-14v18.27h-3.08ZM157.37,206.24h12.93c3.24,0,5.71-.84,7.42-2.52,1.7-1.68,2.55-3.77,2.55-6.26s-.85-4.65-2.55-6.35c-1.7-1.7-4.17-2.55-7.42-2.55h-12.93v17.68Z"/>
    <path class="logo-letters" d="M197.7,227.3v-41.52h3.08v41.52h-3.08Z"/>
    <path class="logo-letters" d="M236.14,227.95c-2.85,0-5.51-.54-7.98-1.63-2.47-1.09-4.64-2.61-6.5-4.57-1.86-1.96-3.31-4.23-4.36-6.82s-1.57-5.39-1.57-8.39.52-5.8,1.57-8.39c1.05-2.59,2.5-4.86,4.36-6.82,1.86-1.96,4.02-3.48,6.5-4.57,2.47-1.09,5.13-1.63,7.98-1.63s5.51.54,7.98,1.63c2.47,1.09,4.64,2.61,6.5,4.57,1.86,1.96,3.31,4.23,4.36,6.82,1.05,2.59,1.57,5.39,1.57,8.39s-.52,5.8-1.57,8.39-2.5,4.86-4.36,6.82c-1.86,1.96-4.02,3.48-6.5,4.57-2.47,1.09-5.13,1.63-7.98,1.63ZM236.14,225.11c2.45,0,4.73-.47,6.82-1.42,2.1-.95,3.93-2.26,5.52-3.94,1.58-1.68,2.81-3.65,3.68-5.9.87-2.25,1.3-4.69,1.3-7.3s-.44-5.04-1.3-7.3c-.87-2.25-2.1-4.22-3.68-5.9-1.58-1.68-3.42-3-5.52-3.94-2.1-.95-4.37-1.42-6.82-1.42s-4.73.47-6.82,1.42c-2.1.95-3.94,2.26-5.52,3.94-1.58,1.68-2.81,3.65-3.68,5.9-.87,2.25-1.31,4.69-1.31,7.3s.43,5.04,1.31,7.3c.87,2.25,2.1,4.22,3.68,5.9,1.58,1.68,3.42,3,5.52,3.94,2.1.95,4.37,1.42,6.82,1.42ZM233.89,179.97l6.23-6.88h4.45l-7.83,6.88h-2.85Z"/>
    <path class="logo-letters" d="M271.49,227.3v-41.52h3.08v38.74h24.14v2.79h-27.23Z"/>
    <path class="logo-letters" d="M325.73,227.95c-2.85,0-5.51-.54-7.98-1.63-2.47-1.09-4.64-2.61-6.5-4.57-1.86-1.96-3.31-4.23-4.36-6.82s-1.57-5.39-1.57-8.39.52-5.8,1.57-8.39c1.05-2.59,2.5-4.86,4.36-6.82,1.86-1.96,4.02-3.48,6.5-4.57,2.47-1.09,5.13-1.63,7.98-1.63s5.51.54,7.98,1.63c2.47,1.09,4.64,2.61,6.5,4.57,1.86,1.96,3.31,4.23,4.36,6.82,1.05,2.59,1.57,5.39,1.57,8.39s-.52,5.8-1.57,8.39-2.5,4.86-4.36,6.82c-1.86,1.96-4.02,3.48-6.5,4.57-2.47,1.09-5.13,1.63-7.98,1.63ZM325.73,225.11c2.45,0,4.73-.47,6.82-1.42,2.1-.95,3.93-2.26,5.52-3.94,1.58-1.68,2.81-3.65,3.68-5.9.87-2.25,1.3-4.69,1.3-7.3s-.44-5.04-1.3-7.3c-.87-2.25-2.1-4.22-3.68-5.9-1.58-1.68-3.42-3-5.52-3.94-2.1-.95-4.37-1.42-6.82-1.42s-4.73.47-6.82,1.42c-2.1.95-3.94,2.26-5.52,3.94-1.58,1.68-2.81,3.65-3.68,5.9-.87,2.25-1.31,4.69-1.31,7.3s.43,5.04,1.31,7.3c.87,2.25,2.1,4.22,3.68,5.9,1.58,1.68,3.42,3,5.52,3.94,2.1.95,4.37,1.42,6.82,1.42Z"/>
    <path class="logo-letters" d="M375.71,227.95c-2.89,0-5.57-.54-8.04-1.63-2.47-1.09-4.65-2.61-6.53-4.57-1.88-1.96-3.34-4.23-4.39-6.82s-1.57-5.39-1.57-8.39.52-5.8,1.57-8.39c1.05-2.59,2.51-4.86,4.39-6.82,1.88-1.96,4.05-3.48,6.53-4.57,2.47-1.09,5.15-1.63,8.04-1.63,3.16,0,6.14.54,8.93,1.63,2.79,1.09,5.19,2.7,7.21,4.83l-2.02,2.31c-1.58-1.86-3.65-3.31-6.2-4.36s-5.19-1.57-7.92-1.57c-2.49,0-4.8.47-6.91,1.42-2.12.95-3.96,2.26-5.55,3.94-1.58,1.68-2.81,3.65-3.68,5.9-.87,2.25-1.31,4.69-1.31,7.3s.43,5.04,1.31,7.3c.87,2.25,2.1,4.22,3.68,5.9,1.58,1.68,3.43,3,5.55,3.94,2.12.95,4.42,1.42,6.91,1.42,3.12,0,5.91-.7,8.36-2.11,2.45-1.4,4.42-3.32,5.9-5.75,1.48-2.43,2.3-5.19,2.46-8.27h-14.89v-2.79h17.91v1.54c0,2.81-.5,5.44-1.48,7.89-.99,2.45-2.36,4.6-4.12,6.44-1.76,1.84-3.85,3.28-6.26,4.33-2.41,1.05-5.04,1.57-7.89,1.57Z"/>
    <path class="logo-letters" d="M425.8,227.95c-2.85,0-5.51-.54-7.98-1.63-2.47-1.09-4.64-2.61-6.5-4.57-1.86-1.96-3.31-4.23-4.36-6.82s-1.57-5.39-1.57-8.39.52-5.8,1.57-8.39c1.05-2.59,2.5-4.86,4.36-6.82,1.86-1.96,4.02-3.48,6.5-4.57,2.47-1.09,5.13-1.63,7.98-1.63s5.51.54,7.98,1.63c2.47,1.09,4.64,2.61,6.5,4.57,1.86,1.96,3.31,4.23,4.36,6.82,1.05,2.59,1.57,5.39,1.57,8.39s-.52,5.8-1.57,8.39-2.5,4.86-4.36,6.82c-1.86,1.96-4.02,3.48-6.5,4.57-2.47,1.09-5.13,1.63-7.98,1.63ZM425.8,225.11c2.45,0,4.73-.47,6.82-1.42,2.1-.95,3.93-2.26,5.52-3.94,1.58-1.68,2.81-3.65,3.68-5.9.87-2.25,1.3-4.69,1.3-7.3s-.44-5.04-1.3-7.3c-.87-2.25-2.1-4.22-3.68-5.9-1.58-1.68-3.42-3-5.52-3.94-2.1-.95-4.37-1.42-6.82-1.42s-4.73.47-6.82,1.42c-2.1.95-3.94,2.26-5.52,3.94-1.58,1.68-2.81,3.65-3.68,5.9-.87,2.25-1.31,4.69-1.31,7.3s.43,5.04,1.31,7.3c.87,2.25,2.1,4.22,3.68,5.9,1.58,1.68,3.42,3,5.52,3.94,2.1.95,4.37,1.42,6.82,1.42Z"/>
  </g>
</svg>
