<?xml version="1.0" standalone="no"?>
<!DOCTYPE svg PUBLIC "-//W3C//DTD SVG 20010904//EN"
 "http://www.w3.org/TR/2001/REC-SVG-20010904/DTD/svg10.dtd">
<svg version="1.0" xmlns="http://www.w3.org/2000/svg"
 width="766.000000pt" height="706.000000pt" viewBox="0 0 766.000000 706.000000"
 preserveAspectRatio="xMidYMid meet">

<g transform="translate(0.000000,706.000000) scale(0.100000,-0.100000)"
fill="#000000" stroke="none">
<path fill="#0DAA70" d="M2215 6993 c-562 -34 -1095 -273 -1490 -668 -560 -560 -791 -1375
-608 -2150 77 -327 229 -637 449 -915 36 -47 765 -783 1618 -1636 1528 -1528
1552 -1551 1602 -1563 88 -21 124 -5 226 100 314 322 528 764 599 1233 28 181
30 464 6 643 -45 329 -170 665 -348 938 -94 145 -159 226 -296 366 l-113 117
0 556 c0 527 -1 559 -19 594 -23 46 -46 67 -94 87 -91 38 -196 0 -245 -90 -15
-26 -18 -81 -22 -400 l-5 -370 -442 435 c-244 239 -457 442 -475 452 -49 25
-134 23 -180 -5 -57 -35 -98 -102 -98 -161 0 -80 2 -82 473 -548 l452 -447
-363 -1 c-401 0 -404 0 -459 -63 -90 -103 -45 -266 83 -305 31 -9 185 -12 586
-12 l544 0 105 -107 c296 -303 476 -664 534 -1074 20 -140 19 -402 -1 -542
-33 -227 -117 -473 -225 -663 -54 -93 -149 -233 -172 -252 -10 -9 -322 299
-1498 1476 -1624 1626 -1553 1550 -1683 1802 -75 146 -125 276 -159 415 -46
182 -52 240 -52 470 0 229 6 288 51 466 173 697 740 1249 1435 1397 167 36
279 45 482 39 270 -8 462 -50 705 -155 179 -77 409 -228 507 -332 22 -24 53
-55 70 -69 16 -14 381 -377 810 -806 830 -828 869 -871 990 -1084 101 -179
183 -408 221 -616 24 -137 30 -424 10 -572 -53 -399 -225 -766 -497 -1057 -38
-41 -76 -90 -84 -110 -68 -162 108 -322 265 -241 15 8 56 46 93 85 217 229
369 478 494 808 l28 73 75 25 c105 34 337 150 450 224 346 227 628 543 808
905 163 329 235 641 236 1020 0 222 -15 353 -63 551 -193 787 -792 1412 -1582
1649 -197 59 -404 88 -639 88 -189 1 -301 -10 -470 -44 -337 -68 -679 -227
-954 -443 -51 -39 -62 -44 -76 -34 -10 7 -52 39 -94 71 -416 315 -975 483
-1501 450z m3360 -399 c745 -97 1382 -662 1575 -1395 104 -395 79 -824 -70
-1199 -160 -405 -470 -756 -856 -970 -103 -56 -119 -60 -108 -28 11 36 8 376
-5 483 -14 114 -52 299 -82 395 -81 268 -234 559 -407 775 -31 39 -385 400
-786 803 l-731 733 30 25 c58 48 193 135 286 183 241 126 487 192 799 215 71
5 235 -4 355 -20z"/>
</g>
</svg>
